0
SECTION
2
HEADER
0
ENDSEC
0
SECTION
2
TABLES
0
TABLE
2
LAYER
70
4
0
LAYER
2
OUTLINE
70
0
62
7
6
CONTINUOUS
0
LAYER
2
SLOT
70
0
62
5
6
CONTINUOUS
0
LAYER
2
DIM
70
0
62
3
6
CONTINUOUS
0
LAYER
2
NOTE
70
0
62
1
6
CONTINUOUS
0
ENDTAB
0
ENDSEC
0
SECTION
2
ENTITIES
0
LINE
8
OUTLINE
10
0.0000
20
25.0000
30
0.0000
11
134.2339
21
102.5000
31
0.0000
0
LINE
8
OUTLINE
10
134.2339
20
102.5000
30
0.0000
11
86.6025
21
130.0000
31
0.0000
0
LINE
8
OUTLINE
10
86.6025
20
130.0000
30
0.0000
11
-47.6314
21
52.5000
31
0.0000
0
LINE
8
OUTLINE
10
-47.6314
20
52.5000
30
0.0000
11
0.0000
21
25.0000
31
0.0000
0
LINE
8
OUTLINE
10
0.0000
20
25.0000
30
0.0000
11
0.0000
21
20.0000
31
0.0000
0
LINE
8
OUTLINE
10
134.2339
20
102.5000
30
0.0000
11
134.2339
21
97.5000
31
0.0000
0
LINE
8
OUTLINE
10
86.6025
20
130.0000
30
0.0000
11
86.6025
21
125.0000
31
0.0000
0
LINE
8
OUTLINE
10
0.0000
20
20.0000
30
0.0000
11
134.2339
21
97.5000
31
0.0000
0
LINE
8
OUTLINE
10
134.2339
20
97.5000
30
0.0000
11
86.6025
21
125.0000
31
0.0000
0
LINE
8
SLOT
10
23.3827
20
46.5000
30
0.0000
11
96.9948
21
89.0000
31
0.0000
0
LINE
8
SLOT
10
19.6299
20
48.6667
30
0.0000
11
93.2421
21
91.1667
31
0.0000
0
LINE
8
SLOT
10
15.8771
20
50.8333
30
0.0000
11
89.4893
21
93.3333
31
0.0000
0
LINE
8
SLOT
10
12.1244
20
53.0000
30
0.0000
11
85.7365
21
95.5000
31
0.0000
0
LINE
8
SLOT
10
8.3716
20
55.1667
30
0.0000
11
81.9837
21
97.6667
31
0.0000
0
LINE
8
SLOT
10
4.6188
20
57.3333
30
0.0000
11
78.2310
21
99.8333
31
0.0000
0
LINE
8
SLOT
10
0.8660
20
59.5000
30
0.0000
11
74.4782
21
102.0000
31
0.0000
0
LINE
8
SLOT
10
-2.8868
20
61.6667
30
0.0000
11
70.7254
21
104.1667
31
0.0000
0
LINE
8
SLOT
10
-6.6395
20
63.8333
30
0.0000
11
66.9726
21
106.3333
31
0.0000
0
LINE
8
SLOT
10
-10.3923
20
66.0000
30
0.0000
11
63.2199
21
108.5000
31
0.0000
0
LINE
8
OUTLINE
10
-24.2487
20
57.0000
30
0.0000
11
62.3538
21
107.0000
31
0.0000
0
LINE
8
OUTLINE
10
62.3538
20
107.0000
30
0.0000
11
53.6936
21
112.0000
31
0.0000
0
LINE
8
OUTLINE
10
53.6936
20
112.0000
30
0.0000
11
-32.9090
21
62.0000
31
0.0000
0
LINE
8
OUTLINE
10
-32.9090
20
62.0000
30
0.0000
11
-24.2487
21
57.0000
31
0.0000
0
LINE
8
OUTLINE
10
-24.2487
20
57.0000
30
0.0000
11
-24.2487
21
51.0000
31
0.0000
0
LINE
8
OUTLINE
10
62.3538
20
107.0000
30
0.0000
11
62.3538
21
101.0000
31
0.0000
0
LINE
8
OUTLINE
10
53.6936
20
112.0000
30
0.0000
11
53.6936
21
106.0000
31
0.0000
0
LINE
8
OUTLINE
10
-24.2487
20
51.0000
30
0.0000
11
62.3538
21
101.0000
31
0.0000
0
LINE
8
OUTLINE
10
62.3538
20
101.0000
30
0.0000
11
53.6936
21
106.0000
31
0.0000
0
LINE
8
OUTLINE
10
17.3205
20
75.0000
30
0.0000
11
17.3205
21
81.0000
31
0.0000
0
LINE
8
OUTLINE
10
20.7846
20
77.0000
30
0.0000
11
20.7846
21
83.0000
31
0.0000
0
LINE
8
OUTLINE
10
75.3442
20
82.5000
30
0.0000
11
122.9756
21
110.0000
31
0.0000
0
LINE
8
OUTLINE
10
122.9756
20
110.0000
30
0.0000
11
114.3154
21
115.0000
31
0.0000
0
LINE
8
OUTLINE
10
114.3154
20
115.0000
30
0.0000
11
66.6840
21
87.5000
31
0.0000
0
LINE
8
OUTLINE
10
66.6840
20
87.5000
30
0.0000
11
75.3442
21
82.5000
31
0.0000
0
LINE
8
OUTLINE
10
75.3442
20
82.5000
30
0.0000
11
75.3442
21
76.5000
31
0.0000
0
LINE
8
OUTLINE
10
122.9756
20
110.0000
30
0.0000
11
122.9756
21
104.0000
31
0.0000
0
LINE
8
OUTLINE
10
114.3154
20
115.0000
30
0.0000
11
114.3154
21
109.0000
31
0.0000
0
LINE
8
OUTLINE
10
75.3442
20
76.5000
30
0.0000
11
122.9756
21
104.0000
31
0.0000
0
LINE
8
OUTLINE
10
122.9756
20
104.0000
30
0.0000
11
114.3154
21
109.0000
31
0.0000
0
LINE
8
OUTLINE
10
69.2820
20
101.0000
30
0.0000
11
95.2628
21
116.0000
31
0.0000
0
LINE
8
OUTLINE
10
95.2628
20
116.0000
30
0.0000
11
86.6025
21
121.0000
31
0.0000
0
LINE
8
OUTLINE
10
86.6025
20
121.0000
30
0.0000
11
60.6218
21
106.0000
31
0.0000
0
LINE
8
OUTLINE
10
60.6218
20
106.0000
30
0.0000
11
69.2820
21
101.0000
31
0.0000
0
LINE
8
OUTLINE
10
69.2820
20
101.0000
30
0.0000
11
69.2820
21
95.0000
31
0.0000
0
LINE
8
OUTLINE
10
95.2628
20
116.0000
30
0.0000
11
95.2628
21
110.0000
31
0.0000
0
LINE
8
OUTLINE
10
86.6025
20
121.0000
30
0.0000
11
86.6025
21
115.0000
31
0.0000
0
LINE
8
OUTLINE
10
69.2820
20
95.0000
30
0.0000
11
95.2628
21
110.0000
31
0.0000
0
LINE
8
OUTLINE
10
95.2628
20
110.0000
30
0.0000
11
86.6025
21
115.0000
31
0.0000
0
TEXT
8
DIM
10
69.1170
20
50.7500
30
0.0000
40
3.0000
1
155
50
0.0000
0
TEXT
8
DIM
10
116.4182
20
113.2500
30
0.0000
40
3.0000
1
55
50
0.0000
0
TEXT
8
DIM
10
-9.0000
20
24.5000
30
0.0000
40
3.0000
1
5
50
0.0000
0
TEXT
8
DIM
10
-22.2487
20
63.0000
30
0.0000
40
3.0000
1
100
50
0.0000
0
TEXT
8
DIM
10
-6.6603
20
68.0000
30
0.0000
40
3.0000
1
30
50
0.0000
0
TEXT
8
DIM
10
21.0526
20
84.0000
30
0.0000
40
3.0000
1
10
50
0.0000
0
TEXT
8
DIM
10
-0.5981
20
73.5000
30
0.0000
40
3.0000
1
R6
50
0.0000
0
TEXT
8
DIM
10
77.3442
20
86.5000
30
0.0000
40
3.0000
1
55
50
0.0000
0
TEXT
8
DIM
10
71.2820
20
105.0000
30
0.0000
40
3.0000
1
30
50
0.0000
0
TEXT
8
DIM
10
88.6025
20
125.0000
30
0.0000
40
3.0000
1
10
50
0.0000
0
TEXT
8
NOTE
10
-5.0000
20
-2.0000
30
0.0000
40
4.0000
1
ALL DIMENSIONS ARE IN mm
50
0.0000
0
LINE
8
OUTLINE
10
250.0000
20
155.0000
30
0.0000
11
275.9808
21
170.0000
31
0.0000
0
LINE
8
OUTLINE
10
275.9808
20
170.0000
30
0.0000
11
267.3205
21
175.0000
31
0.0000
0
LINE
8
OUTLINE
10
267.3205
20
175.0000
30
0.0000
11
241.3397
21
160.0000
31
0.0000
0
LINE
8
OUTLINE
10
241.3397
20
160.0000
30
0.0000
11
250.0000
21
155.0000
31
0.0000
0
LINE
8
OUTLINE
10
250.0000
20
155.0000
30
0.0000
11
250.0000
21
150.0000
31
0.0000
0
LINE
8
OUTLINE
10
275.9808
20
170.0000
30
0.0000
11
275.9808
21
165.0000
31
0.0000
0
LINE
8
OUTLINE
10
267.3205
20
175.0000
30
0.0000
11
267.3205
21
170.0000
31
0.0000
0
LINE
8
OUTLINE
10
250.0000
20
150.0000
30
0.0000
11
275.9808
21
165.0000
31
0.0000
0
LINE
8
OUTLINE
10
275.9808
20
165.0000
30
0.0000
11
267.3205
21
170.0000
31
0.0000
0
LINE
8
OUTLINE
10
274.2487
20
171.0000
30
0.0000
11
301.9615
21
187.0000
31
0.0000
0
LINE
8
OUTLINE
10
301.9615
20
187.0000
30
0.0000
11
296.7654
21
190.0000
31
0.0000
0
LINE
8
OUTLINE
10
296.7654
20
190.0000
30
0.0000
11
269.0526
21
174.0000
31
0.0000
0
LINE
8
OUTLINE
10
269.0526
20
174.0000
30
0.0000
11
274.2487
21
171.0000
31
0.0000
0
LINE
8
OUTLINE
10
274.2487
20
171.0000
30
0.0000
11
274.2487
21
166.0000
31
0.0000
0
LINE
8
OUTLINE
10
301.9615
20
187.0000
30
0.0000
11
301.9615
21
182.0000
31
0.0000
0
LINE
8
OUTLINE
10
296.7654
20
190.0000
30
0.0000
11
296.7654
21
185.0000
31
0.0000
0
LINE
8
OUTLINE
10
274.2487
20
166.0000
30
0.0000
11
301.9615
21
182.0000
31
0.0000
0
LINE
8
OUTLINE
10
301.9615
20
182.0000
30
0.0000
11
296.7654
21
185.0000
31
0.0000
0
LINE
8
OUTLINE
10
303.6936
20
186.0000
30
0.0000
11
329.6743
21
201.0000
31
0.0000
0
LINE
8
OUTLINE
10
329.6743
20
201.0000
30
0.0000
11
321.0141
21
206.0000
31
0.0000
0
LINE
8
OUTLINE
10
321.0141
20
206.0000
30
0.0000
11
295.0333
21
191.0000
31
0.0000
0
LINE
8
OUTLINE
10
295.0333
20
191.0000
30
0.0000
11
303.6936
21
186.0000
31
0.0000
0
LINE
8
OUTLINE
10
303.6936
20
186.0000
30
0.0000
11
303.6936
21
181.0000
31
0.0000
0
LINE
8
OUTLINE
10
329.6743
20
201.0000
30
0.0000
11
329.6743
21
196.0000
31
0.0000
0
LINE
8
OUTLINE
10
321.0141
20
206.0000
30
0.0000
11
321.0141
21
201.0000
31
0.0000
0
LINE
8
OUTLINE
10
303.6936
20
181.0000
30
0.0000
11
329.6743
21
196.0000
31
0.0000
0
LINE
8
OUTLINE
10
329.6743
20
196.0000
30
0.0000
11
321.0141
21
201.0000
31
0.0000
0
TEXT
8
NOTE
10
245.0000
20
195.0000
30
0.0000
40
4.0000
1
Tensile sample
50
0.0000
0
TEXT
8
DIM
10
256.3301
20
166.5000
30
0.0000
40
3.0000
1
30
50
0.0000
0
TEXT
8
DIM
10
284.9090
20
181.0000
30
0.0000
40
3.0000
1
32
50
0.0000
0
TEXT
8
DIM
10
310.0237
20
197.5000
30
0.0000
40
3.0000
1
30
50
0.0000
0
TEXT
8
DIM
10
291.8372
20
165.0000
30
0.0000
40
3.0000
1
100
50
0.0000
0
TEXT
8
DIM
10
242.0000
20
154.5000
30
0.0000
40
3.0000
1
5
50
0.0000
0
LINE
8
OUTLINE
10
255.0000
20
86.0000
30
0.0000
11
289.6410
21
106.0000
31
0.0000
0
LINE
8
OUTLINE
10
289.6410
20
106.0000
30
0.0000
11
272.3205
21
116.0000
31
0.0000
0
LINE
8
OUTLINE
10
272.3205
20
116.0000
30
0.0000
11
237.6795
21
96.0000
31
0.0000
0
LINE
8
OUTLINE
10
237.6795
20
96.0000
30
0.0000
11
255.0000
21
86.0000
31
0.0000
0
LINE
8
OUTLINE
10
255.0000
20
86.0000
30
0.0000
11
255.0000
21
80.0000
31
0.0000
0
LINE
8
OUTLINE
10
289.6410
20
106.0000
30
0.0000
11
289.6410
21
100.0000
31
0.0000
0
LINE
8
OUTLINE
10
272.3205
20
116.0000
30
0.0000
11
272.3205
21
110.0000
31
0.0000
0
LINE
8
OUTLINE
10
255.0000
20
80.0000
30
0.0000
11
289.6410
21
100.0000
31
0.0000
0
LINE
8
OUTLINE
10
289.6410
20
100.0000
30
0.0000
11
272.3205
21
110.0000
31
0.0000
0
LINE
8
OUTLINE
10
255.0000
20
88.0000
30
0.0000
11
272.3205
21
98.0000
31
0.0000
0
LINE
8
OUTLINE
10
272.3205
20
98.0000
30
0.0000
11
255.0000
21
108.0000
31
0.0000
0
LINE
8
OUTLINE
10
255.0000
20
108.0000
30
0.0000
11
237.6795
21
98.0000
31
0.0000
0
LINE
8
OUTLINE
10
237.6795
20
98.0000
30
0.0000
11
255.0000
21
88.0000
31
0.0000
0
LINE
8
OUTLINE
10
255.0000
20
88.0000
30
0.0000
11
255.0000
21
86.0000
31
0.0000
0
LINE
8
OUTLINE
10
272.3205
20
98.0000
30
0.0000
11
272.3205
21
96.0000
31
0.0000
0
LINE
8
OUTLINE
10
255.0000
20
108.0000
30
0.0000
11
255.0000
21
106.0000
31
0.0000
0
LINE
8
OUTLINE
10
255.0000
20
86.0000
30
0.0000
11
272.3205
21
96.0000
31
0.0000
0
LINE
8
OUTLINE
10
272.3205
20
96.0000
30
0.0000
11
255.0000
21
106.0000
31
0.0000
0
TEXT
8
NOTE
10
250.0000
20
122.0000
30
0.0000
40
4.0000
1
Coupon for Hardness study
50
0.0000
0
TEXT
8
DIM
10
274.3205
20
82.0000
30
0.0000
40
3.0000
1
40
50
0.0000
0
TEXT
8
DIM
10
286.9808
20
107.0000
30
0.0000
40
3.0000
1
20
50
0.0000
0
TEXT
8
DIM
10
247.0000
20
85.0000
30
0.0000
40
3.0000
1
6
50
0.0000
0
LINE
8
OUTLINE
10
255.0000
20
20.0000
30
0.0000
11
302.6314
21
47.5000
31
0.0000
0
LINE
8
OUTLINE
10
302.6314
20
47.5000
30
0.0000
11
293.9711
21
52.5000
31
0.0000
0
LINE
8
OUTLINE
10
293.9711
20
52.5000
30
0.0000
11
246.3397
21
25.0000
31
0.0000
0
LINE
8
OUTLINE
10
246.3397
20
25.0000
30
0.0000
11
255.0000
21
20.0000
31
0.0000
0
LINE
8
OUTLINE
10
255.0000
20
20.0000
30
0.0000
11
255.0000
21
15.0000
31
0.0000
0
LINE
8
OUTLINE
10
302.6314
20
47.5000
30
0.0000
11
302.6314
21
42.5000
31
0.0000
0
LINE
8
OUTLINE
10
293.9711
20
52.5000
30
0.0000
11
293.9711
21
47.5000
31
0.0000
0
LINE
8
OUTLINE
10
255.0000
20
15.0000
30
0.0000
11
302.6314
21
42.5000
31
0.0000
0
LINE
8
OUTLINE
10
302.6314
20
42.5000
30
0.0000
11
293.9711
21
47.5000
31
0.0000
0
LINE
8
OUTLINE
10
278.8157
20
33.7500
30
0.0000
11
270.1554
21
38.7500
31
0.0000
0
LINE
8
OUTLINE
10
277.0836
20
32.7500
30
0.0000
11
278.8157
21
30.7500
31
0.0000
0
LINE
8
OUTLINE
10
280.5477
20
34.7500
30
0.0000
11
278.8157
21
30.7500
31
0.0000
0
TEXT
8
NOTE
10
250.0000
20
55.0000
30
0.0000
40
4.0000
1
Impact test sample
50
0.0000
0
TEXT
8
DIM
10
280.8157
20
20.7500
30
0.0000
40
3.0000
1
55
50
0.0000
0
TEXT
8
DIM
10
304.3013
20
47.0000
30
0.0000
40
3.0000
1
10
50
0.0000
0
TEXT
8
DIM
10
247.0000
20
19.5000
30
0.0000
40
3.0000
1
5
50
0.0000
0
ENDSEC
0
EOF
