0
SECTION
2
HEADER
9
$ACADVER
1
AC1021
9
$INSUNITS
70
4
9
$EXTMIN
10
0.000000
20
0.000000
30
0.000000
9
$EXTMAX
10
420.000000
20
320.000000
30
0.000000
0
ENDSEC
0
SECTION
2
TABLES
0
TABLE
2
LAYER
70
12
0
LAYER
5
162
100
AcDbSymbolTableRecord
100
AcDbLayerTableRecord
2
0
70
0
62
7
6
CONTINUOUS
0
LAYER
5
163
100
AcDbSymbolTableRecord
100
AcDbLayerTableRecord
2
PLATE_SDSS
70
0
62
11
6
CONTINUOUS
0
LAYER
5
164
100
AcDbSymbolTableRecord
100
AcDbLayerTableRecord
2
PLATE_X70
70
0
62
36
6
CONTINUOUS
0
LAYER
5
165
100
AcDbSymbolTableRecord
100
AcDbLayerTableRecord
2
WELD
70
0
62
2
6
CONTINUOUS
0
LAYER
5
166
100
AcDbSymbolTableRecord
100
AcDbLayerTableRecord
2
TENSILE
70
0
62
9
6
CONTINUOUS
0
LAYER
5
167
100
AcDbSymbolTableRecord
100
AcDbLayerTableRecord
2
MICROHARD
70
0
62
4
6
CONTINUOUS
0
LAYER
5
168
100
AcDbSymbolTableRecord
100
AcDbLayerTableRecord
2
METALLO
70
0
62
8
6
CONTINUOUS
0
LAYER
5
169
100
AcDbSymbolTableRecord
100
AcDbLayerTableRecord
2
IMPACT
70
0
62
1
6
CONTINUOUS
0
LAYER
5
16A
100
AcDbSymbolTableRecord
100
AcDbLayerTableRecord
2
OUTLINE
70
0
62
7
6
CONTINUOUS
0
LAYER
5
16B
100
AcDbSymbolTableRecord
100
AcDbLayerTableRecord
2
TEXT
70
0
62
7
6
CONTINUOUS
0
LAYER
5
16C
100
AcDbSymbolTableRecord
100
AcDbLayerTableRecord
2
LABELS
70
0
62
1
6
CONTINUOUS
0
LAYER
5
16D
100
AcDbSymbolTableRecord
100
AcDbLayerTableRecord
2
BORDER
70
0
62
7
6
CONTINUOUS
0
ENDTAB
0
ENDSEC
0
SECTION
2
ENTITIES
0
LWPOLYLINE
5
101
100
AcDbEntity
8
BORDER
100
AcDbPolyline
90
4
70
1
10
10.000000
20
10.000000
10
410.000000
20
10.000000
10
410.000000
20
310.000000
10
10.000000
20
310.000000
0
LWPOLYLINE
5
102
100
AcDbEntity
8
BORDER
100
AcDbPolyline
90
4
70
1
10
14.000000
20
14.000000
10
406.000000
20
14.000000
10
406.000000
20
306.000000
10
14.000000
20
306.000000
0
LWPOLYLINE
5
103
100
AcDbEntity
8
PLATE_SDSS
100
AcDbPolyline
90
4
70
1
10
40.000000
20
40.000000
10
205.000000
20
40.000000
10
205.000000
20
270.000000
10
40.000000
20
270.000000
0
LWPOLYLINE
5
104
100
AcDbEntity
8
PLATE_X70
100
AcDbPolyline
90
4
70
1
10
205.000000
20
40.000000
10
370.000000
20
40.000000
10
370.000000
20
270.000000
10
205.000000
20
270.000000
0
LINE
5
105
100
AcDbEntity
8
WELD
100
AcDbLine
10
205.000000
20
40.000000
30
0.000000
11
205.000000
21
270.000000
31
0.000000
0
LINE
5
106
100
AcDbEntity
8
WELD
100
AcDbLine
10
208.000000
20
40.000000
30
0.000000
11
202.000000
21
51.500000
31
0.000000
0
LINE
5
107
100
AcDbEntity
8
WELD
100
AcDbLine
10
202.000000
20
51.500000
30
0.000000
11
208.000000
21
63.000000
31
0.000000
0
LINE
5
108
100
AcDbEntity
8
WELD
100
AcDbLine
10
208.000000
20
63.000000
30
0.000000
11
202.000000
21
74.500000
31
0.000000
0
LINE
5
109
100
AcDbEntity
8
WELD
100
AcDbLine
10
202.000000
20
74.500000
30
0.000000
11
208.000000
21
86.000000
31
0.000000
0
LINE
5
10A
100
AcDbEntity
8
WELD
100
AcDbLine
10
208.000000
20
86.000000
30
0.000000
11
202.000000
21
97.500000
31
0.000000
0
LINE
5
10B
100
AcDbEntity
8
WELD
100
AcDbLine
10
202.000000
20
97.500000
30
0.000000
11
208.000000
21
109.000000
31
0.000000
0
LINE
5
10C
100
AcDbEntity
8
WELD
100
AcDbLine
10
208.000000
20
109.000000
30
0.000000
11
202.000000
21
120.500000
31
0.000000
0
LINE
5
10D
100
AcDbEntity
8
WELD
100
AcDbLine
10
202.000000
20
120.500000
30
0.000000
11
208.000000
21
132.000000
31
0.000000
0
LINE
5
10E
100
AcDbEntity
8
WELD
100
AcDbLine
10
208.000000
20
132.000000
30
0.000000
11
202.000000
21
143.500000
31
0.000000
0
LINE
5
10F
100
AcDbEntity
8
WELD
100
AcDbLine
10
202.000000
20
143.500000
30
0.000000
11
208.000000
21
155.000000
31
0.000000
0
LINE
5
110
100
AcDbEntity
8
WELD
100
AcDbLine
10
208.000000
20
155.000000
30
0.000000
11
202.000000
21
166.500000
31
0.000000
0
LINE
5
111
100
AcDbEntity
8
WELD
100
AcDbLine
10
202.000000
20
166.500000
30
0.000000
11
208.000000
21
178.000000
31
0.000000
0
LINE
5
112
100
AcDbEntity
8
WELD
100
AcDbLine
10
208.000000
20
178.000000
30
0.000000
11
202.000000
21
189.500000
31
0.000000
0
LINE
5
113
100
AcDbEntity
8
WELD
100
AcDbLine
10
202.000000
20
189.500000
30
0.000000
11
208.000000
21
201.000000
31
0.000000
0
LINE
5
114
100
AcDbEntity
8
WELD
100
AcDbLine
10
208.000000
20
201.000000
30
0.000000
11
202.000000
21
212.500000
31
0.000000
0
LINE
5
115
100
AcDbEntity
8
WELD
100
AcDbLine
10
202.000000
20
212.500000
30
0.000000
11
208.000000
21
224.000000
31
0.000000
0
LINE
5
116
100
AcDbEntity
8
WELD
100
AcDbLine
10
208.000000
20
224.000000
30
0.000000
11
202.000000
21
235.500000
31
0.000000
0
LINE
5
117
100
AcDbEntity
8
WELD
100
AcDbLine
10
202.000000
20
235.500000
30
0.000000
11
208.000000
21
247.000000
31
0.000000
0
LINE
5
118
100
AcDbEntity
8
WELD
100
AcDbLine
10
208.000000
20
247.000000
30
0.000000
11
202.000000
21
258.500000
31
0.000000
0
LINE
5
119
100
AcDbEntity
8
WELD
100
AcDbLine
10
202.000000
20
258.500000
30
0.000000
11
208.000000
21
270.000000
31
0.000000
0
LWPOLYLINE
5
11A
100
AcDbEntity
8
OUTLINE
100
AcDbPolyline
90
4
70
1
10
40.000000
20
40.000000
10
370.000000
20
40.000000
10
370.000000
20
270.000000
10
40.000000
20
270.000000
0
TEXT
5
11B
100
AcDbEntity
8
TEXT
62
14
100
AcDbText
10
46.000000
20
252.000000
30
0.000000
40
7.000000
1
sDSS 2507
50
0.000000
72
0
11
46.000000
21
252.000000
31
0.000000
100
AcDbText
0
TEXT
5
11C
100
AcDbEntity
8
TEXT
62
2
100
AcDbText
10
310.000000
20
48.000000
30
0.000000
40
7.000000
1
X-70
50
0.000000
72
0
11
310.000000
21
48.000000
31
0.000000
100
AcDbText
0
LWPOLYLINE
5
11D
100
AcDbEntity
8
MICROHARD
100
AcDbPolyline
90
4
70
1
10
192.000000
20
90.000000
10
218.000000
20
90.000000
10
218.000000
20
110.000000
10
192.000000
20
110.000000
0
LWPOLYLINE
5
11E
100
AcDbEntity
8
OUTLINE
100
AcDbPolyline
90
4
70
1
10
192.000000
20
90.000000
10
218.000000
20
90.000000
10
218.000000
20
110.000000
10
192.000000
20
110.000000
0
LINE
5
11F
100
AcDbEntity
8
OUTLINE
100
AcDbLine
10
196.000000
20
95.000000
30
0.000000
11
198.000000
21
95.000000
31
0.000000
0
LINE
5
120
100
AcDbEntity
8
OUTLINE
100
AcDbLine
10
197.000000
20
94.000000
30
0.000000
11
197.000000
21
96.000000
31
0.000000
0
LINE
5
121
100
AcDbEntity
8
OUTLINE
100
AcDbLine
10
196.000000
20
100.000000
30
0.000000
11
198.000000
21
100.000000
31
0.000000
0
LINE
5
122
100
AcDbEntity
8
OUTLINE
100
AcDbLine
10
197.000000
20
99.000000
30
0.000000
11
197.000000
21
101.000000
31
0.000000
0
LINE
5
123
100
AcDbEntity
8
OUTLINE
100
AcDbLine
10
196.000000
20
105.000000
30
0.000000
11
198.000000
21
105.000000
31
0.000000
0
LINE
5
124
100
AcDbEntity
8
OUTLINE
100
AcDbLine
10
197.000000
20
104.000000
30
0.000000
11
197.000000
21
106.000000
31
0.000000
0
LINE
5
125
100
AcDbEntity
8
OUTLINE
100
AcDbLine
10
200.000000
20
95.000000
30
0.000000
11
202.000000
21
95.000000
31
0.000000
0
LINE
5
126
100
AcDbEntity
8
OUTLINE
100
AcDbLine
10
201.000000
20
94.000000
30
0.000000
11
201.000000
21
96.000000
31
0.000000
0
LINE
5
127
100
AcDbEntity
8
OUTLINE
100
AcDbLine
10
200.000000
20
100.000000
30
0.000000
11
202.000000
21
100.000000
31
0.000000
0
LINE
5
128
100
AcDbEntity
8
OUTLINE
100
AcDbLine
10
201.000000
20
99.000000
30
0.000000
11
201.000000
21
101.000000
31
0.000000
0
LINE
5
129
100
AcDbEntity
8
OUTLINE
100
AcDbLine
10
200.000000
20
105.000000
30
0.000000
11
202.000000
21
105.000000
31
0.000000
0
LINE
5
12A
100
AcDbEntity
8
OUTLINE
100
AcDbLine
10
201.000000
20
104.000000
30
0.000000
11
201.000000
21
106.000000
31
0.000000
0
LINE
5
12B
100
AcDbEntity
8
OUTLINE
100
AcDbLine
10
204.000000
20
95.000000
30
0.000000
11
206.000000
21
95.000000
31
0.000000
0
LINE
5
12C
100
AcDbEntity
8
OUTLINE
100
AcDbLine
10
205.000000
20
94.000000
30
0.000000
11
205.000000
21
96.000000
31
0.000000
0
LINE
5
12D
100
AcDbEntity
8
OUTLINE
100
AcDbLine
10
204.000000
20
100.000000
30
0.000000
11
206.000000
21
100.000000
31
0.000000
0
LINE
5
12E
100
AcDbEntity
8
OUTLINE
100
AcDbLine
10
205.000000
20
99.000000
30
0.000000
11
205.000000
21
101.000000
31
0.000000
0
LINE
5
12F
100
AcDbEntity
8
OUTLINE
100
AcDbLine
10
204.000000
20
105.000000
30
0.000000
11
206.000000
21
105.000000
31
0.000000
0
LINE
5
130
100
AcDbEntity
8
OUTLINE
100
AcDbLine
10
205.000000
20
104.000000
30
0.000000
11
205.000000
21
106.000000
31
0.000000
0
LINE
5
131
100
AcDbEntity
8
OUTLINE
100
AcDbLine
10
208.000000
20
95.000000
30
0.000000
11
210.000000
21
95.000000
31
0.000000
0
LINE
5
132
100
AcDbEntity
8
OUTLINE
100
AcDbLine
10
209.000000
20
94.000000
30
0.000000
11
209.000000
21
96.000000
31
0.000000
0
LINE
5
133
100
AcDbEntity
8
OUTLINE
100
AcDbLine
10
208.000000
20
100.000000
30
0.000000
11
210.000000
21
100.000000
31
0.000000
0
LINE
5
134
100
AcDbEntity
8
OUTLINE
100
AcDbLine
10
209.000000
20
99.000000
30
0.000000
11
209.000000
21
101.000000
31
0.000000
0
LINE
5
135
100
AcDbEntity
8
OUTLINE
100
AcDbLine
10
208.000000
20
105.000000
30
0.000000
11
210.000000
21
105.000000
31
0.000000
0
LINE
5
136
100
AcDbEntity
8
OUTLINE
100
AcDbLine
10
209.000000
20
104.000000
30
0.000000
11
209.000000
21
106.000000
31
0.000000
0
LINE
5
137
100
AcDbEntity
8
OUTLINE
100
AcDbLine
10
212.000000
20
95.000000
30
0.000000
11
214.000000
21
95.000000
31
0.000000
0
LINE
5
138
100
AcDbEntity
8
OUTLINE
100
AcDbLine
10
213.000000
20
94.000000
30
0.000000
11
213.000000
21
96.000000
31
0.000000
0
LINE
5
139
100
AcDbEntity
8
OUTLINE
100
AcDbLine
10
212.000000
20
100.000000
30
0.000000
11
214.000000
21
100.000000
31
0.000000
0
LINE
5
13A
100
AcDbEntity
8
OUTLINE
100
AcDbLine
10
213.000000
20
99.000000
30
0.000000
11
213.000000
21
101.000000
31
0.000000
0
LINE
5
13B
100
AcDbEntity
8
OUTLINE
100
AcDbLine
10
212.000000
20
105.000000
30
0.000000
11
214.000000
21
105.000000
31
0.000000
0
LINE
5
13C
100
AcDbEntity
8
OUTLINE
100
AcDbLine
10
213.000000
20
104.000000
30
0.000000
11
213.000000
21
106.000000
31
0.000000
0
LWPOLYLINE
5
13D
100
AcDbEntity
8
METALLO
100
AcDbPolyline
90
4
70
1
10
125.000000
20
122.000000
10
145.000000
20
122.000000
10
145.000000
20
148.000000
10
125.000000
20
148.000000
0
LWPOLYLINE
5
13E
100
AcDbEntity
8
OUTLINE
100
AcDbPolyline
90
4
70
1
10
125.000000
20
122.000000
10
145.000000
20
122.000000
10
145.000000
20
148.000000
10
125.000000
20
148.000000
0
LWPOLYLINE
5
13F
100
AcDbEntity
8
METALLO
100
AcDbPolyline
90
4
70
1
10
149.000000
20
125.000000
10
169.000000
20
125.000000
10
169.000000
20
151.000000
10
149.000000
20
151.000000
0
LWPOLYLINE
5
140
100
AcDbEntity
8
OUTLINE
100
AcDbPolyline
90
4
70
1
10
149.000000
20
125.000000
10
169.000000
20
125.000000
10
169.000000
20
151.000000
10
149.000000
20
151.000000
0
LWPOLYLINE
5
141
100
AcDbEntity
8
METALLO
100
AcDbPolyline
90
4
70
1
10
173.000000
20
128.000000
10
193.000000
20
128.000000
10
193.000000
20
154.000000
10
173.000000
20
154.000000
0
LWPOLYLINE
5
142
100
AcDbEntity
8
OUTLINE
100
AcDbPolyline
90
4
70
1
10
173.000000
20
128.000000
10
193.000000
20
128.000000
10
193.000000
20
154.000000
10
173.000000
20
154.000000
0
LWPOLYLINE
5
143
100
AcDbEntity
8
METALLO
100
AcDbPolyline
90
4
70
1
10
197.000000
20
131.000000
10
217.000000
20
131.000000
10
217.000000
20
157.000000
10
197.000000
20
157.000000
0
LWPOLYLINE
5
144
100
AcDbEntity
8
OUTLINE
100
AcDbPolyline
90
4
70
1
10
197.000000
20
131.000000
10
217.000000
20
131.000000
10
217.000000
20
157.000000
10
197.000000
20
157.000000
0
LWPOLYLINE
5
145
100
AcDbEntity
8
METALLO
100
AcDbPolyline
90
4
70
1
10
221.000000
20
134.000000
10
241.000000
20
134.000000
10
241.000000
20
160.000000
10
221.000000
20
160.000000
0
LWPOLYLINE
5
146
100
AcDbEntity
8
OUTLINE
100
AcDbPolyline
90
4
70
1
10
221.000000
20
134.000000
10
241.000000
20
134.000000
10
241.000000
20
160.000000
10
221.000000
20
160.000000
0
LWPOLYLINE
5
147
100
AcDbEntity
8
METALLO
100
AcDbPolyline
90
4
70
1
10
245.000000
20
137.000000
10
265.000000
20
137.000000
10
265.000000
20
163.000000
10
245.000000
20
163.000000
0
LWPOLYLINE
5
148
100
AcDbEntity
8
OUTLINE
100
AcDbPolyline
90
4
70
1
10
245.000000
20
137.000000
10
265.000000
20
137.000000
10
265.000000
20
163.000000
10
245.000000
20
163.000000
0
LWPOLYLINE
5
149
100
AcDbEntity
8
TENSILE
100
AcDbPolyline
90
12
70
1
10
182.000000
20
175.000000
10
208.000000
20
175.000000
10
208.000000
20
197.000000
10
202.000000
20
203.000000
10
202.000000
20
227.000000
10
208.000000
20
233.000000
10
208.000000
20
255.000000
10
182.000000
20
255.000000
10
182.000000
20
233.000000
10
188.000000
20
227.000000
10
188.000000
20
203.000000
10
182.000000
20
197.000000
0
LWPOLYLINE
5
14A
100
AcDbEntity
8
OUTLINE
100
AcDbPolyline
90
12
70
1
10
182.000000
20
175.000000
10
208.000000
20
175.000000
10
208.000000
20
197.000000
10
202.000000
20
203.000000
10
202.000000
20
227.000000
10
208.000000
20
233.000000
10
208.000000
20
255.000000
10
182.000000
20
255.000000
10
182.000000
20
233.000000
10
188.000000
20
227.000000
10
188.000000
20
203.000000
10
182.000000
20
197.000000
0
LINE
5
14B
100
AcDbEntity
8
WELD
100
AcDbLine
10
188.000000
20
215.000000
30
0.000000
11
202.000000
21
215.000000
31
0.000000
0
LWPOLYLINE
5
14C
100
AcDbEntity
8
TENSILE
100
AcDbPolyline
90
12
70
1
10
224.000000
20
175.000000
10
250.000000
20
175.000000
10
250.000000
20
197.000000
10
244.000000
20
203.000000
10
244.000000
20
227.000000
10
250.000000
20
233.000000
10
250.000000
20
255.000000
10
224.000000
20
255.000000
10
224.000000
20
233.000000
10
230.000000
20
227.000000
10
230.000000
20
203.000000
10
224.000000
20
197.000000
0
LWPOLYLINE
5
14D
100
AcDbEntity
8
OUTLINE
100
AcDbPolyline
90
12
70
1
10
224.000000
20
175.000000
10
250.000000
20
175.000000
10
250.000000
20
197.000000
10
244.000000
20
203.000000
10
244.000000
20
227.000000
10
250.000000
20
233.000000
10
250.000000
20
255.000000
10
224.000000
20
255.000000
10
224.000000
20
233.000000
10
230.000000
20
227.000000
10
230.000000
20
203.000000
10
224.000000
20
197.000000
0
LINE
5
14E
100
AcDbEntity
8
WELD
100
AcDbLine
10
230.000000
20
215.000000
30
0.000000
11
244.000000
21
215.000000
31
0.000000
0
LWPOLYLINE
5
14F
100
AcDbEntity
8
IMPACT
100
AcDbPolyline
90
4
70
1
10
263.000000
20
75.000000
10
287.000000
20
75.000000
10
287.000000
20
145.000000
10
263.000000
20
145.000000
0
LWPOLYLINE
5
150
100
AcDbEntity
8
OUTLINE
100
AcDbPolyline
90
4
70
1
10
263.000000
20
75.000000
10
287.000000
20
75.000000
10
287.000000
20
145.000000
10
263.000000
20
145.000000
0
LWPOLYLINE
5
151
100
AcDbEntity
8
OUTLINE
100
AcDbPolyline
90
3
70
0
10
263.000000
20
114.000000
10
268.000000
20
110.000000
10
263.000000
20
106.000000
0
LWPOLYLINE
5
152
100
AcDbEntity
8
IMPACT
100
AcDbPolyline
90
4
70
1
10
297.000000
20
85.000000
10
321.000000
20
85.000000
10
321.000000
20
155.000000
10
297.000000
20
155.000000
0
LWPOLYLINE
5
153
100
AcDbEntity
8
OUTLINE
100
AcDbPolyline
90
4
70
1
10
297.000000
20
85.000000
10
321.000000
20
85.000000
10
321.000000
20
155.000000
10
297.000000
20
155.000000
0
LWPOLYLINE
5
154
100
AcDbEntity
8
OUTLINE
100
AcDbPolyline
90
3
70
0
10
297.000000
20
124.000000
10
302.000000
20
120.000000
10
297.000000
20
116.000000
0
LWPOLYLINE
5
155
100
AcDbEntity
8
IMPACT
100
AcDbPolyline
90
4
70
1
10
331.000000
20
95.000000
10
355.000000
20
95.000000
10
355.000000
20
165.000000
10
331.000000
20
165.000000
0
LWPOLYLINE
5
156
100
AcDbEntity
8
OUTLINE
100
AcDbPolyline
90
4
70
1
10
331.000000
20
95.000000
10
355.000000
20
95.000000
10
355.000000
20
165.000000
10
331.000000
20
165.000000
0
LWPOLYLINE
5
157
100
AcDbEntity
8
OUTLINE
100
AcDbPolyline
90
3
70
0
10
331.000000
20
134.000000
10
336.000000
20
130.000000
10
331.000000
20
126.000000
0
TEXT
5
158
100
AcDbEntity
8
LABELS
62
1
100
AcDbText
10
165.000000
20
260.000000
30
0.000000
40
6.500000
1
Tensile test specimen
50
33.000000
72
0
11
165.000000
21
260.000000
31
0.000000
100
AcDbText
0
TEXT
5
159
100
AcDbEntity
8
LABELS
62
1
100
AcDbText
10
110.000000
20
160.000000
30
0.000000
40
6.500000
1
Microhardness  specimen
50
50.000000
72
0
11
110.000000
21
160.000000
31
0.000000
100
AcDbText
0
TEXT
5
15A
100
AcDbEntity
8
LABELS
62
1
100
AcDbText
10
185.000000
20
95.000000
30
0.000000
40
6.500000
1
Metallography specimen
50
20.000000
72
0
11
185.000000
21
95.000000
31
0.000000
100
AcDbText
0
TEXT
5
15B
100
AcDbEntity
8
LABELS
62
1
100
AcDbText
10
220.000000
20
80.000000
30
0.000000
40
6.500000
1
Impact  test specimen
50
25.000000
72
0
11
220.000000
21
80.000000
31
0.000000
100
AcDbText
0
LWPOLYLINE
5
15C
100
AcDbEntity
8
BORDER
100
AcDbPolyline
90
4
70
1
10
260.000000
20
16.000000
10
404.000000
20
16.000000
10
404.000000
20
56.000000
10
260.000000
20
56.000000
0
LINE
5
15D
100
AcDbEntity
8
BORDER
100
AcDbLine
10
260.000000
20
42.000000
30
0.000000
11
404.000000
21
42.000000
31
0.000000
0
LINE
5
15E
100
AcDbEntity
8
BORDER
100
AcDbLine
10
260.000000
20
29.000000
30
0.000000
11
404.000000
21
29.000000
31
0.000000
0
TEXT
5
15F
100
AcDbEntity
8
TEXT
100
AcDbText
10
264.000000
20
46.000000
30
0.000000
40
4.500000
1
DISSIMILAR WELD JOINT  sDSS 2507 / X-70
50
0.000000
72
0
11
264.000000
21
46.000000
31
0.000000
100
AcDbText
0
TEXT
5
160
100
AcDbEntity
8
TEXT
100
AcDbText
10
264.000000
20
32.000000
30
0.000000
40
3.500000
1
SPECIMEN EXTRACTION LAYOUT
50
0.000000
72
0
11
264.000000
21
32.000000
31
0.000000
100
AcDbText
0
TEXT
5
161
100
AcDbEntity
8
TEXT
100
AcDbText
10
264.000000
20
20.000000
30
0.000000
40
3.000000
1
UNITS: mm   |   SCALE: NTS   |   DWG: AMMAN
50
0.000000
72
0
11
264.000000
21
20.000000
31
0.000000
100
AcDbText
0
ENDSEC
0
EOF
