<svg xmlns="http://www.w3.org/2000/svg" width="760" height="418" viewBox="0 0 760 418" font-family="Helvetica,Arial,sans-serif">
<rect width="760" height="418" fill="white"/>
<text x="20" y="28" font-size="16" font-weight="bold" fill="#222">Figure 2. Adjusted odds ratios for poor early outcome (mRS 3–6)</text>
<line x1="252.9" y1="60" x2="252.9" y2="358" stroke="#dddddd"/>
<text x="252.9" y="378.0" font-size="11" fill="#666" text-anchor="middle">0.5</text>
<line x1="325.9" y1="60" x2="325.9" y2="358" stroke="#dddddd"/>
<text x="325.9" y="378.0" font-size="11" fill="#666" text-anchor="middle">0.7</text>
<line x1="403.4" y1="60" x2="403.4" y2="358" stroke="#dddddd"/>
<text x="403.4" y="378.0" font-size="11" fill="#666" text-anchor="middle">1</text>
<line x1="491.4" y1="60" x2="491.4" y2="358" stroke="#dddddd"/>
<text x="491.4" y="378.0" font-size="11" fill="#666" text-anchor="middle">1.5</text>
<line x1="553.9" y1="60" x2="553.9" y2="358" stroke="#dddddd"/>
<text x="553.9" y="378.0" font-size="11" fill="#666" text-anchor="middle">2</text>
<line x1="602.4" y1="60" x2="602.4" y2="358" stroke="#dddddd"/>
<text x="602.4" y="378.0" font-size="11" fill="#666" text-anchor="middle">2.5</text>
<line x1="642.0" y1="60" x2="642.0" y2="358" stroke="#dddddd"/>
<text x="642.0" y="378.0" font-size="11" fill="#666" text-anchor="middle">3</text>
<line x1="403.4" y1="60" x2="403.4" y2="358" stroke="#333" stroke-dasharray="4,3"/>
<text x="218" y="98.0" font-size="12.5" fill="#222" text-anchor="end">Female sex</text>
<line x1="416.1" y1="94.0" x2="505.5" y2="94.0" stroke="#7f8c8d" stroke-width="2"/>
<line x1="416.1" y1="89.0" x2="416.1" y2="99.0" stroke="#7f8c8d" stroke-width="2"/>
<line x1="505.5" y1="89.0" x2="505.5" y2="99.0" stroke="#7f8c8d" stroke-width="2"/>
<rect x="455.4" y="89.0" width="10" height="10" fill="#c0504d"/>
<text x="658" y="98.0" font-size="11.5" fill="#222">1.3 (1.06–1.6) *</text>
<text x="218" y="146.0" font-size="12.5" fill="#222" text-anchor="end">Age (per SD)</text>
<line x1="494.3" y1="142.0" x2="540.5" y2="142.0" stroke="#7f8c8d" stroke-width="2"/>
<line x1="494.3" y1="137.0" x2="494.3" y2="147.0" stroke="#7f8c8d" stroke-width="2"/>
<line x1="540.5" y1="137.0" x2="540.5" y2="147.0" stroke="#7f8c8d" stroke-width="2"/>
<rect x="512.3" y="137.0" width="10" height="10" fill="#2c3e50"/>
<text x="658" y="146.0" font-size="11.5" fill="#222">1.69 (1.52–1.88) *</text>
<text x="218" y="194.0" font-size="12.5" fill="#222" text-anchor="end">Baseline NIHSS (per SD)</text>
<line x1="560.3" y1="190.0" x2="608.4" y2="190.0" stroke="#7f8c8d" stroke-width="2"/>
<line x1="560.3" y1="185.0" x2="560.3" y2="195.0" stroke="#7f8c8d" stroke-width="2"/>
<line x1="608.4" y1="185.0" x2="608.4" y2="195.0" stroke="#7f8c8d" stroke-width="2"/>
<rect x="579.3" y="185.0" width="10" height="10" fill="#2c3e50"/>
<text x="658" y="194.0" font-size="11.5" fill="#222">2.3 (2.06–2.57) *</text>
<text x="218" y="242.0" font-size="12.5" fill="#222" text-anchor="end">Prestroke disability</text>
<line x1="529.8" y1="238.0" x2="629.3" y2="238.0" stroke="#7f8c8d" stroke-width="2"/>
<line x1="529.8" y1="233.0" x2="529.8" y2="243.0" stroke="#7f8c8d" stroke-width="2"/>
<line x1="629.3" y1="233.0" x2="629.3" y2="243.0" stroke="#7f8c8d" stroke-width="2"/>
<rect x="574.5" y="233.0" width="10" height="10" fill="#2c3e50"/>
<text x="658" y="242.0" font-size="11.5" fill="#222">2.25 (1.79–2.83) *</text>
<text x="218" y="290.0" font-size="12.5" fill="#222" text-anchor="end">Atrial fibrillation</text>
<line x1="484.1" y1="286.0" x2="589.9" y2="286.0" stroke="#7f8c8d" stroke-width="2"/>
<line x1="484.1" y1="281.0" x2="484.1" y2="291.0" stroke="#7f8c8d" stroke-width="2"/>
<line x1="589.9" y1="281.0" x2="589.9" y2="291.0" stroke="#7f8c8d" stroke-width="2"/>
<rect x="532.0" y="281.0" width="10" height="10" fill="#2c3e50"/>
<text x="658" y="290.0" font-size="11.5" fill="#222">1.85 (1.45–2.36) *</text>
<text x="218" y="338.0" font-size="12.5" fill="#222" text-anchor="end">Thrombolysis (IV tPA)</text>
<line x1="252.9" y1="334.0" x2="380.5" y2="334.0" stroke="#7f8c8d" stroke-width="2"/>
<line x1="252.9" y1="329.0" x2="252.9" y2="339.0" stroke="#7f8c8d" stroke-width="2"/>
<line x1="380.5" y1="329.0" x2="380.5" y2="339.0" stroke="#7f8c8d" stroke-width="2"/>
<rect x="311.4" y="329.0" width="10" height="10" fill="#2c3e50"/>
<text x="658" y="338.0" font-size="11.5" fill="#222">0.67 (0.5–0.9) *</text>
<text x="440" y="402" font-size="12" fill="#666" text-anchor="middle">Adjusted odds ratio (log scale) — * p &lt; 0.05</text>
</svg>
