<svg xmlns="http://www.w3.org/2000/svg" width="800" height="650" viewBox="0 0 800 650">
<rect width="800" height="650" fill="white"/>
<text x="400" y="25" font-family="Times New Roman, serif" font-size="14" fill="#003366" text-anchor="middle" font-weight="bold">System Architecture: DRL-Digital Twin HVAC Optimization Framework</text>
<rect x="40" y="45" width="720" height="130" fill="#9467bd" stroke="#9467bd" stroke-width="2" opacity="0.1" rx="5"/>
<rect x="40" y="45" width="720" height="130" fill="none" stroke="#9467bd" stroke-width="2" opacity="1" rx="5"/>
<text x="55" y="63" font-family="Times New Roman, serif" font-size="11" fill="#9467bd" text-anchor="start" font-weight="bold">INTELLIGENCE LAYER</text>
<rect x="70" y="90" width="155" height="65" fill="white" stroke="#9467bd" stroke-width="1.5" opacity="1" rx="3"/>
<text x="147" y="118" font-family="Times New Roman, serif" font-size="10" fill="#333" text-anchor="middle" font-weight="normal">DRL Agent</text>
<text x="147" y="134" font-family="Times New Roman, serif" font-size="10" fill="#333" text-anchor="middle" font-weight="normal">(TD3)</text>
<rect x="250" y="90" width="155" height="65" fill="white" stroke="#9467bd" stroke-width="1.5" opacity="1" rx="3"/>
<text x="327" y="118" font-family="Times New Roman, serif" font-size="10" fill="#333" text-anchor="middle" font-weight="normal">Policy</text>
<text x="327" y="134" font-family="Times New Roman, serif" font-size="10" fill="#333" text-anchor="middle" font-weight="normal">Network</text>
<rect x="430" y="90" width="155" height="65" fill="white" stroke="#9467bd" stroke-width="1.5" opacity="1" rx="3"/>
<text x="507" y="118" font-family="Times New Roman, serif" font-size="10" fill="#333" text-anchor="middle" font-weight="normal">Value</text>
<text x="507" y="134" font-family="Times New Roman, serif" font-size="10" fill="#333" text-anchor="middle" font-weight="normal">Network</text>
<rect x="610" y="90" width="155" height="65" fill="white" stroke="#9467bd" stroke-width="1.5" opacity="1" rx="3"/>
<text x="687" y="118" font-family="Times New Roman, serif" font-size="10" fill="#333" text-anchor="middle" font-weight="normal">Experience</text>
<text x="687" y="134" font-family="Times New Roman, serif" font-size="10" fill="#333" text-anchor="middle" font-weight="normal">Replay</text>
<rect x="40" y="195" width="720" height="130" fill="#1f77b4" stroke="#1f77b4" stroke-width="2" opacity="0.1" rx="5"/>
<rect x="40" y="195" width="720" height="130" fill="none" stroke="#1f77b4" stroke-width="2" opacity="1" rx="5"/>
<text x="55" y="213" font-family="Times New Roman, serif" font-size="11" fill="#1f77b4" text-anchor="start" font-weight="bold">DIGITAL TWIN LAYER</text>
<rect x="70" y="240" width="155" height="65" fill="white" stroke="#1f77b4" stroke-width="1.5" opacity="1" rx="3"/>
<text x="147" y="268" font-family="Times New Roman, serif" font-size="10" fill="#333" text-anchor="middle" font-weight="normal">EnergyPlus</text>
<text x="147" y="284" font-family="Times New Roman, serif" font-size="10" fill="#333" text-anchor="middle" font-weight="normal">Model</text>
<rect x="250" y="240" width="155" height="65" fill="white" stroke="#1f77b4" stroke-width="1.5" opacity="1" rx="3"/>
<text x="327" y="268" font-family="Times New Roman, serif" font-size="10" fill="#333" text-anchor="middle" font-weight="normal">Thermal</text>
<text x="327" y="284" font-family="Times New Roman, serif" font-size="10" fill="#333" text-anchor="middle" font-weight="normal">Simulation</text>
<rect x="430" y="240" width="155" height="65" fill="white" stroke="#1f77b4" stroke-width="1.5" opacity="1" rx="3"/>
<text x="507" y="268" font-family="Times New Roman, serif" font-size="10" fill="#333" text-anchor="middle" font-weight="normal">Calibration</text>
<text x="507" y="284" font-family="Times New Roman, serif" font-size="10" fill="#333" text-anchor="middle" font-weight="normal">Module</text>
<rect x="610" y="240" width="155" height="65" fill="white" stroke="#1f77b4" stroke-width="1.5" opacity="1" rx="3"/>
<text x="687" y="268" font-family="Times New Roman, serif" font-size="10" fill="#333" text-anchor="middle" font-weight="normal">Scenario</text>
<text x="687" y="284" font-family="Times New Roman, serif" font-size="10" fill="#333" text-anchor="middle" font-weight="normal">Generator</text>
<rect x="40" y="345" width="720" height="130" fill="#2ca02c" stroke="#2ca02c" stroke-width="2" opacity="0.1" rx="5"/>
<rect x="40" y="345" width="720" height="130" fill="none" stroke="#2ca02c" stroke-width="2" opacity="1" rx="5"/>
<text x="55" y="363" font-family="Times New Roman, serif" font-size="11" fill="#2ca02c" text-anchor="start" font-weight="bold">DATA LAYER</text>
<rect x="70" y="390" width="155" height="65" fill="white" stroke="#2ca02c" stroke-width="1.5" opacity="1" rx="3"/>
<text x="147" y="418" font-family="Times New Roman, serif" font-size="10" fill="#333" text-anchor="middle" font-weight="normal">Kafka</text>
<text x="147" y="434" font-family="Times New Roman, serif" font-size="10" fill="#333" text-anchor="middle" font-weight="normal">Streams</text>
<rect x="250" y="390" width="155" height="65" fill="white" stroke="#2ca02c" stroke-width="1.5" opacity="1" rx="3"/>
<text x="327" y="418" font-family="Times New Roman, serif" font-size="10" fill="#333" text-anchor="middle" font-weight="normal">InfluxDB</text>
<text x="327" y="434" font-family="Times New Roman, serif" font-size="10" fill="#333" text-anchor="middle" font-weight="normal">Storage</text>
<rect x="430" y="390" width="155" height="65" fill="white" stroke="#2ca02c" stroke-width="1.5" opacity="1" rx="3"/>
<text x="507" y="418" font-family="Times New Roman, serif" font-size="10" fill="#333" text-anchor="middle" font-weight="normal">Feature</text>
<text x="507" y="434" font-family="Times New Roman, serif" font-size="10" fill="#333" text-anchor="middle" font-weight="normal">Engineering</text>
<rect x="610" y="390" width="155" height="65" fill="white" stroke="#2ca02c" stroke-width="1.5" opacity="1" rx="3"/>
<text x="687" y="418" font-family="Times New Roman, serif" font-size="10" fill="#333" text-anchor="middle" font-weight="normal">Preprocessing</text>
<rect x="40" y="495" width="720" height="130" fill="#ff7f0e" stroke="#ff7f0e" stroke-width="2" opacity="0.1" rx="5"/>
<rect x="40" y="495" width="720" height="130" fill="none" stroke="#ff7f0e" stroke-width="2" opacity="1" rx="5"/>
<text x="55" y="513" font-family="Times New Roman, serif" font-size="11" fill="#ff7f0e" text-anchor="start" font-weight="bold">PHYSICAL LAYER</text>
<rect x="70" y="540" width="155" height="65" fill="white" stroke="#ff7f0e" stroke-width="1.5" opacity="1" rx="3"/>
<text x="147" y="568" font-family="Times New Roman, serif" font-size="10" fill="#333" text-anchor="middle" font-weight="normal">BMS</text>
<text x="147" y="584" font-family="Times New Roman, serif" font-size="10" fill="#333" text-anchor="middle" font-weight="normal">Gateway</text>
<rect x="250" y="540" width="155" height="65" fill="white" stroke="#ff7f0e" stroke-width="1.5" opacity="1" rx="3"/>
<text x="327" y="568" font-family="Times New Roman, serif" font-size="10" fill="#333" text-anchor="middle" font-weight="normal">HVAC</text>
<text x="327" y="584" font-family="Times New Roman, serif" font-size="10" fill="#333" text-anchor="middle" font-weight="normal">Equipment</text>
<rect x="430" y="540" width="155" height="65" fill="white" stroke="#ff7f0e" stroke-width="1.5" opacity="1" rx="3"/>
<text x="507" y="568" font-family="Times New Roman, serif" font-size="10" fill="#333" text-anchor="middle" font-weight="normal">Sensors</text>
<rect x="610" y="540" width="155" height="65" fill="white" stroke="#ff7f0e" stroke-width="1.5" opacity="1" rx="3"/>
<text x="687" y="568" font-family="Times New Roman, serif" font-size="10" fill="#333" text-anchor="middle" font-weight="normal">Zone</text>
<text x="687" y="584" font-family="Times New Roman, serif" font-size="10" fill="#333" text-anchor="middle" font-weight="normal">Controllers</text>
<line x1="200" y1="177" x2="200" y2="193" stroke="#555" stroke-width="1.5"/>
<polygon points="200,193 194.1,184.9 205.9,184.9" fill="#555"/>
<line x1="400" y1="177" x2="400" y2="193" stroke="#555" stroke-width="1.5"/>
<polygon points="400,193 394.1,184.9 405.9,184.9" fill="#555"/>
<line x1="600" y1="177" x2="600" y2="193" stroke="#555" stroke-width="1.5"/>
<polygon points="600,193 594.1,184.9 605.9,184.9" fill="#555"/>
<line x1="250" y1="193" x2="250" y2="177" stroke="#999" stroke-width="1"/>
<polygon points="250,177 255.9,185.1 244.1,185.1" fill="#999"/>
<line x1="450" y1="193" x2="450" y2="177" stroke="#999" stroke-width="1"/>
<polygon points="450,177 455.9,185.1 444.1,185.1" fill="#999"/>
<line x1="650" y1="193" x2="650" y2="177" stroke="#999" stroke-width="1"/>
<polygon points="650,177 655.9,185.1 644.1,185.1" fill="#999"/>
<line x1="200" y1="327" x2="200" y2="343" stroke="#555" stroke-width="1.5"/>
<polygon points="200,343 194.1,334.9 205.9,334.9" fill="#555"/>
<line x1="400" y1="327" x2="400" y2="343" stroke="#555" stroke-width="1.5"/>
<polygon points="400,343 394.1,334.9 405.9,334.9" fill="#555"/>
<line x1="600" y1="327" x2="600" y2="343" stroke="#555" stroke-width="1.5"/>
<polygon points="600,343 594.1,334.9 605.9,334.9" fill="#555"/>
<line x1="250" y1="343" x2="250" y2="327" stroke="#999" stroke-width="1"/>
<polygon points="250,327 255.9,335.1 244.1,335.1" fill="#999"/>
<line x1="450" y1="343" x2="450" y2="327" stroke="#999" stroke-width="1"/>
<polygon points="450,327 455.9,335.1 444.1,335.1" fill="#999"/>
<line x1="650" y1="343" x2="650" y2="327" stroke="#999" stroke-width="1"/>
<polygon points="650,327 655.9,335.1 644.1,335.1" fill="#999"/>
<line x1="200" y1="477" x2="200" y2="493" stroke="#555" stroke-width="1.5"/>
<polygon points="200,493 194.1,484.9 205.9,484.9" fill="#555"/>
<line x1="400" y1="477" x2="400" y2="493" stroke="#555" stroke-width="1.5"/>
<polygon points="400,493 394.1,484.9 405.9,484.9" fill="#555"/>
<line x1="600" y1="477" x2="600" y2="493" stroke="#555" stroke-width="1.5"/>
<polygon points="600,493 594.1,484.9 605.9,484.9" fill="#555"/>
<line x1="250" y1="493" x2="250" y2="477" stroke="#999" stroke-width="1"/>
<polygon points="250,477 255.9,485.1 244.1,485.1" fill="#999"/>
<line x1="450" y1="493" x2="450" y2="477" stroke="#999" stroke-width="1"/>
<polygon points="450,477 455.9,485.1 444.1,485.1" fill="#999"/>
<line x1="650" y1="493" x2="650" y2="477" stroke="#999" stroke-width="1"/>
<polygon points="650,477 655.9,485.1 644.1,485.1" fill="#999"/>
<text x="320" y="183" font-family="Times New Roman, serif" font-size="9" fill="#555" text-anchor="middle" font-weight="normal">Actions/Setpoints</text>
<text x="320" y="333" font-family="Times New Roman, serif" font-size="9" fill="#555" text-anchor="middle" font-weight="normal">Processed States</text>
<text x="320" y="483" font-family="Times New Roman, serif" font-size="9" fill="#555" text-anchor="middle" font-weight="normal">Raw Sensor Data</text>
</svg>
